P3
35 61
255
0 0 0
0 0 0
0 0 0
0 0 0
0 0 0
0 0 0
0 0 0
0 0 0
0 0 0
0 0 0
0 0 0
0 0 0
0 0 0
0 0 0
0 0 0
0 0 0
0 0 0
0 0 0
0 0 0
0 0 0
0 0 0
0 0 0
0 0 0
0 0 0
0 0 0
0 0 0
0 0 0
0 0 0
0 0 0
0 0 0
0 0 0
0 0 0
0 0 0
0 0 0
0 0 0
0 0 0
255 255 255
255 255 255
255 255 255
255 255 255
255 255 255
255 255 255
255 255 255
255 255 255
255 255 255
255 255 255
255 255 255
255 255 255
255 255 255
255 255 255
255 255 255
255 255 255
255 255 255
255 255 255
255 255 255
255 255 255
255 255 255
255 255 255
255 255 255
255 255 255
255 255 255
255 255 255
255 255 255
255 255 255
255 255 255
255 255 255
255 255 255
255 255 255
255 255 255
0 0 0
0 0 0
255 255 255
0 0 0
255 255 255
0 0 0
255 255 255
0 0 0
255 255 255
0 0 0
255 255 255
0 0 0
255 255 255
0 0 0
255 255 255
0 0 0
255 255 255
0 0 0
255 255 255
0 0 0
255 255 255
0 0 0
255 255 255
0 0 0
255 255 255
0 0 0
255 255 255
0 0 0
255 255 255
0 0 0
255 255 255
0 0 0
255 255 255
0 0 0
255 255 255
0 0 0
0 0 0
255 255 255
255 255 255
255 255 255
255 255 255
255 255 255
255 255 255
255 255 255
255 255 255
255 255 255
255 255 255
255 255 255
255 255 255
255 255 255
255 255 255
255 255 255
255 255 255
255 255 255
255 255 255
255 255 255
255 255 255
255 255 255
255 255 255
255 255 255
255 255 255
255 255 255
255 255 255
255 255 255
255 255 255
255 255 255
255 255 255
255 255 255
255 255 255
255 255 255
0 0 0
0 0 0
255 255 255
0 0 0
255 255 255
0 0 0
255 255 255
0 0 0
255 255 255
0 0 0
255 255 255
0 0 0
255 255 255
0 0 0
255 255 255
0 0 0
255 255 255
0 0 0
255 255 255
0 0 0
255 255 255
0 0 0
255 255 255
0 0 0
255 255 255
0 0 0
255 255 255
0 0 0
255 255 255
0 0 0
255 255 255
0 0 0
255 255 255
0 0 0
255 255 255
0 0 0
0 0 0
255 255 255
255 255 255
255 255 255
255 255 255
255 255 255
255 255 255
255 255 255
255 255 255
255 255 255
255 255 255
255 255 255
255 255 255
255 255 255
255 255 255
255 255 255
255 255 255
255 255 255
255 255 255
255 255 255
255 255 255
255 255 255
255 255 255
255 255 255
255 255 255
255 255 255
255 255 255
255 255 255
255 255 255
255 255 255
255 255 255
255 255 255
255 255 255
255 255 255
0 0 0
0 0 0
255 255 255
0 0 0
255 255 255
0 0 0
255 255 255
0 0 0
255 255 255
0 0 0
255 255 255
0 0 0
255 255 255
0 0 0
255 255 255
0 0 0
255 255 255
0 0 0
255 255 255
0 0 0
255 255 255
0 0 0
255 255 255
0 0 0
255 255 255
0 0 0
255 255 255
0 0 0
255 255 255
0 0 0
255 255 255
0 0 0
255 255 255
0 0 0
255 255 255
0 0 0
0 0 0
255 255 255
255 255 255
255 255 255
255 255 255
255 255 255
255 255 255
255 255 255
255 255 255
255 255 255
255 255 255
255 255 255
255 255 255
255 255 255
255 255 255
255 255 255
255 255 255
255 255 255
255 255 255
255 255 255
255 255 255
255 255 255
255 255 255
255 255 255
255 255 255
255 255 255
255 255 255
255 255 255
255 255 255
255 255 255
255 255 255
255 255 255
255 255 255
255 255 255
0 0 0
0 0 0
255 255 255
0 0 0
255 255 255
0 0 0
255 255 255
0 0 0
255 255 255
0 0 0
255 255 255
0 0 0
255 255 255
0 0 0
255 255 255
0 0 0
255 255 255
0 0 0
255 255 255
0 0 0
255 255 255
0 0 0
255 255 255
0 0 0
255 255 255
0 0 0
255 255 255
0 0 0
255 255 255
0 0 0
255 255 255
0 0 0
255 255 255
0 0 0
255 255 255
0 0 0
0 0 0
255 255 255
255 255 255
255 255 255
255 255 255
255 255 255
255 255 255
255 255 255
255 255 255
255 255 255
255 255 255
255 255 255
255 255 255
255 255 255
255 255 255
255 255 255
255 255 255
255 255 255
255 255 255
255 255 255
255 255 255
255 255 255
255 255 255
255 255 255
255 255 255
255 255 255
255 255 255
255 255 255
255 255 255
255 255 255
255 255 255
255 255 255
255 255 255
255 255 255
0 0 0
0 0 0
255 255 255
0 0 0
255 255 255
0 0 0
255 255 255
0 0 0
255 255 255
0 0 0
255 255 255
0 0 0
255 255 255
0 0 0
255 255 255
0 0 0
255 255 255
0 0 0
255 255 255
0 0 0
255 255 255
0 0 0
255 255 255
0 0 0
255 255 255
0 0 0
255 255 255
0 0 0
255 255 255
0 0 0
255 255 255
0 0 0
255 255 255
0 0 0
255 255 255
0 0 0
0 0 0
255 255 255
255 255 255
255 255 255
255 255 255
255 255 255
255 255 255
255 255 255
255 255 255
255 255 255
255 255 255
255 255 255
255 255 255
255 255 255
255 255 255
255 255 255
255 255 255
255 255 255
255 255 255
255 255 255
255 255 255
255 255 255
255 255 255
255 255 255
255 255 255
255 255 255
255 255 255
255 255 255
255 255 255
255 255 255
255 255 255
255 255 255
255 255 255
255 255 255
0 0 0
0 0 0
255 255 255
0 0 0
255 255 255
0 0 0
255 255 255
0 0 0
255 255 255
0 0 0
255 255 255
0 0 0
255 255 255
0 0 0
255 255 255
0 0 0
255 255 255
0 0 0
255 255 255
0 0 0
255 255 255
0 0 0
255 255 255
0 0 0
255 255 255
0 0 0
255 255 255
0 0 0
255 255 255
0 0 0
255 255 255
0 0 0
255 255 255
0 0 0
255 255 255
0 0 0
0 0 0
255 255 255
255 255 255
255 255 255
255 255 255
255 255 255
255 255 255
255 255 255
255 255 255
255 255 255
255 255 255
255 255 255
255 255 255
255 255 255
255 255 255
255 255 255
255 255 255
255 255 255
255 255 255
255 255 255
255 255 255
255 255 255
255 255 255
255 255 255
255 255 255
255 255 255
255 255 255
255 255 255
255 255 255
255 255 255
255 255 255
255 255 255
255 255 255
255 255 255
0 0 0
0 0 0
255 255 255
0 0 0
255 255 255
0 0 0
255 255 255
0 0 0
255 255 255
0 0 0
255 255 255
0 0 0
255 255 255
0 0 0
255 255 255
0 0 0
255 255 255
0 0 0
255 255 255
0 0 0
255 255 255
0 0 0
255 255 255
0 0 0
255 255 255
0 0 0
255 255 255
0 0 0
255 255 255
0 0 0
255 255 255
0 0 0
255 255 255
0 0 0
255 255 255
0 0 0
0 0 0
255 255 255
255 255 255
255 255 255
255 255 255
255 255 255
255 255 255
255 255 255
255 255 255
255 255 255
255 255 255
255 255 255
255 255 255
255 255 255
255 255 255
255 255 255
255 255 255
255 255 255
255 255 255
255 255 255
255 255 255
255 255 255
255 255 255
255 255 255
255 255 255
255 255 255
255 255 255
255 255 255
255 255 255
255 255 255
255 255 255
255 255 255
255 255 255
255 255 255
0 0 0
0 0 0
255 255 255
0 0 0
255 255 255
0 0 0
255 255 255
0 0 0
255 255 255
0 0 0
255 255 255
0 0 0
255 255 255
0 0 0
255 255 255
0 0 0
255 255 255
0 0 0
255 255 255
0 0 0
255 255 255
0 0 0
255 255 255
0 0 0
255 255 255
0 0 0
255 255 255
0 0 0
255 255 255
0 0 0
255 255 255
0 0 0
255 255 255
0 0 0
255 255 255
0 0 0
0 0 0
255 255 255
255 255 255
255 255 255
255 255 255
255 255 255
255 255 255
255 255 255
255 255 255
255 255 255
255 255 255
255 255 255
255 255 255
255 255 255
255 255 255
255 255 255
255 255 255
255 255 255
255 255 255
255 255 255
255 255 255
255 255 255
255 255 255
255 255 255
255 255 255
255 255 255
255 255 255
255 255 255
255 255 255
255 255 255
255 255 255
255 255 255
255 255 255
255 255 255
0 0 0
0 0 0
255 255 255
0 0 0
255 255 255
0 0 0
255 255 255
0 0 0
255 255 255
0 0 0
255 255 255
0 0 0
255 255 255
0 0 0
255 255 255
0 0 0
255 255 255
0 0 0
255 255 255
0 0 0
255 255 255
0 0 0
255 255 255
0 0 0
255 255 255
0 0 0
255 255 255
0 0 0
255 255 255
0 0 0
255 255 255
0 0 0
255 255 255
0 0 0
255 255 255
0 0 0
0 0 0
255 255 255
255 255 255
255 255 255
255 255 255
255 255 255
255 255 255
255 255 255
255 255 255
255 255 255
255 255 255
255 255 255
255 255 255
255 255 255
255 255 255
255 255 255
255 255 255
255 255 255
255 255 255
255 255 255
255 255 255
255 255 255
255 255 255
255 255 255
255 255 255
255 255 255
255 255 255
255 255 255
255 255 255
255 255 255
255 255 255
255 255 255
255 255 255
255 255 255
0 0 0
0 0 0
255 255 255
0 0 0
255 255 255
0 0 0
255 255 255
0 0 0
255 255 255
0 0 0
255 255 255
0 0 0
255 255 255
0 0 0
255 255 255
0 0 0
255 255 255
0 0 0
255 255 255
0 0 0
255 255 255
0 0 0
255 255 255
0 0 0
255 255 255
0 0 0
255 255 255
0 0 0
255 255 255
0 0 0
255 255 255
0 0 0
255 255 255
0 0 0
255 255 255
0 0 0
0 0 0
255 255 255
255 255 255
255 255 255
255 255 255
255 255 255
255 255 255
255 255 255
255 255 255
255 255 255
255 255 255
255 255 255
255 255 255
255 255 255
255 255 255
255 255 255
255 255 255
255 255 255
255 255 255
255 255 255
255 255 255
255 255 255
255 255 255
255 255 255
255 255 255
255 255 255
255 255 255
255 255 255
255 255 255
255 255 255
255 255 255
255 255 255
255 255 255
255 255 255
0 0 0
0 0 0
255 255 255
0 0 0
255 255 255
0 0 0
255 255 255
0 0 0
255 255 255
0 0 0
255 255 255
0 0 0
255 255 255
0 0 0
255 255 255
0 0 0
255 255 255
0 0 0
255 255 255
0 0 0
255 255 255
0 0 0
255 255 255
0 0 0
255 255 255
0 0 0
255 255 255
0 0 0
255 255 255
0 0 0
255 255 255
0 0 0
255 255 255
0 0 0
255 255 255
0 0 0
0 0 0
255 255 255
255 255 255
255 255 255
255 255 255
255 255 255
255 255 255
255 255 255
255 255 255
255 255 255
255 255 255
255 255 255
255 255 255
255 255 255
255 255 255
255 255 255
255 255 255
255 255 255
255 255 255
255 255 255
255 255 255
255 255 255
255 255 255
255 255 255
255 255 255
255 255 255
255 255 255
255 255 255
255 255 255
255 255 255
255 255 255
255 255 255
255 255 255
255 255 255
0 0 0
0 0 0
255 255 255
0 0 0
255 255 255
0 0 0
255 255 255
0 0 0
255 255 255
0 0 0
255 255 255
0 0 0
255 255 255
0 0 0
255 255 255
0 0 0
255 255 255
0 0 0
255 255 255
0 0 0
255 255 255
0 0 0
255 255 255
0 0 0
255 255 255
0 0 0
255 255 255
0 0 0
255 255 255
0 0 0
255 255 255
0 0 0
255 255 255
0 0 0
255 255 255
0 0 0
0 0 0
255 255 255
255 255 255
255 255 255
255 255 255
255 255 255
255 255 255
255 255 255
255 255 255
255 255 255
255 255 255
255 255 255
255 255 255
255 255 255
255 255 255
255 255 255
255 255 255
255 255 255
255 255 255
255 255 255
255 255 255
255 255 255
255 255 255
255 255 255
255 255 255
255 255 255
255 255 255
255 255 255
255 255 255
255 255 255
255 255 255
255 255 255
255 255 255
255 255 255
0 0 0
0 0 0
255 255 255
0 0 0
255 255 255
0 0 0
255 255 255
0 0 0
255 255 255
0 0 0
255 255 255
0 0 0
255 255 255
0 0 0
255 255 255
0 0 0
255 255 255
0 0 0
255 255 255
0 0 0
255 255 255
0 0 0
255 255 255
0 0 0
255 255 255
0 0 0
255 255 255
0 0 0
255 255 255
0 0 0
255 255 255
0 0 0
255 255 255
0 0 0
255 255 255
0 0 0
0 0 0
255 255 255
255 255 255
255 255 255
255 255 255
255 255 255
255 255 255
255 255 255
255 255 255
255 255 255
255 255 255
255 255 255
255 255 255
255 255 255
255 255 255
255 255 255
255 255 255
255 255 255
255 255 255
255 255 255
255 255 255
255 255 255
255 255 255
255 255 255
255 255 255
255 255 255
255 255 255
255 255 255
255 255 255
255 255 255
255 255 255
255 255 255
255 255 255
255 255 255
0 0 0
0 0 0
255 255 255
0 0 0
255 255 255
0 0 0
255 255 255
0 0 0
255 255 255
0 0 0
255 255 255
0 0 0
255 255 255
0 0 0
255 255 255
0 0 0
255 255 255
0 0 0
255 255 255
0 0 0
255 255 255
0 0 0
255 255 255
0 0 0
255 255 255
0 0 0
255 255 255
0 0 0
255 255 255
0 0 0
255 255 255
0 0 0
255 255 255
0 0 0
255 255 255
0 0 0
0 0 0
255 255 255
255 255 255
255 255 255
255 255 255
255 255 255
255 255 255
255 255 255
255 255 255
255 255 255
255 255 255
255 255 255
255 255 255
255 255 255
255 255 255
255 255 255
255 255 255
255 255 255
255 255 255
255 255 255
255 255 255
255 255 255
255 255 255
255 255 255
255 255 255
255 255 255
255 255 255
255 255 255
255 255 255
255 255 255
255 255 255
255 255 255
255 255 255
255 255 255
0 0 0
0 0 0
255 255 255
0 0 0
255 255 255
0 0 0
255 255 255
0 0 0
255 255 255
0 0 0
255 255 255
0 0 0
255 255 255
0 0 0
255 255 255
0 0 0
255 255 255
0 0 0
255 255 255
0 0 0
255 255 255
0 0 0
255 255 255
0 0 0
255 255 255
0 0 0
255 255 255
0 0 0
255 255 255
0 0 0
255 255 255
0 0 0
255 255 255
0 0 0
255 255 255
0 0 0
0 0 0
255 255 255
255 255 255
255 255 255
255 255 255
255 255 255
255 255 255
255 255 255
255 255 255
255 255 255
255 255 255
255 255 255
255 255 255
255 255 255
255 255 255
255 255 255
255 255 255
255 255 255
255 255 255
255 255 255
255 255 255
255 255 255
255 255 255
255 255 255
255 255 255
255 255 255
255 255 255
255 255 255
255 255 255
255 255 255
255 255 255
255 255 255
255 255 255
255 255 255
0 0 0
0 0 0
255 255 255
0 0 0
255 255 255
0 0 0
255 255 255
0 0 0
255 255 255
0 0 0
255 255 255
0 0 0
255 255 255
0 0 0
255 255 255
0 0 0
255 255 255
0 0 0
255 255 255
0 0 0
255 255 255
0 0 0
255 255 255
0 0 0
255 255 255
0 0 0
255 255 255
0 0 0
255 255 255
0 0 0
255 255 255
0 0 0
255 255 255
0 0 0
255 255 255
0 0 0
0 0 0
255 255 255
255 255 255
255 255 255
255 255 255
255 255 255
255 255 255
255 255 255
255 255 255
255 255 255
255 255 255
255 255 255
255 255 255
255 255 255
255 255 255
255 255 255
255 255 255
255 255 255
255 255 255
255 255 255
255 255 255
255 255 255
255 255 255
255 255 255
255 255 255
255 255 255
255 255 255
255 255 255
255 255 255
255 255 255
255 255 255
255 255 255
255 255 255
255 255 255
0 0 0
0 0 0
255 255 255
0 0 0
255 255 255
0 0 0
255 255 255
0 0 0
255 255 255
0 0 0
255 255 255
0 0 0
255 255 255
0 0 0
255 255 255
0 0 0
255 255 255
0 0 0
255 255 255
0 0 0
255 255 255
0 0 0
255 255 255
0 0 0
255 255 255
0 0 0
255 255 255
0 0 0
255 255 255
0 0 0
255 255 255
0 0 0
255 255 255
0 0 0
255 255 255
0 0 0
0 0 0
255 255 255
255 255 255
255 255 255
255 255 255
255 255 255
255 255 255
255 255 255
255 255 255
255 255 255
255 255 255
255 255 255
255 255 255
255 255 255
255 255 255
255 255 255
255 255 255
255 255 255
255 255 255
255 255 255
255 255 255
255 255 255
255 255 255
255 255 255
255 255 255
255 255 255
255 255 255
255 255 255
255 255 255
255 255 255
255 255 255
255 255 255
255 255 255
255 255 255
0 0 0
0 0 0
255 255 255
0 0 0
255 255 255
0 0 0
255 255 255
0 0 0
255 255 255
0 0 0
255 255 255
0 0 0
255 255 255
0 0 0
255 255 255
0 0 0
255 255 255
0 0 0
255 255 255
0 0 0
255 255 255
0 0 0
255 255 255
0 0 0
255 255 255
0 0 0
255 255 255
0 0 0
255 255 255
0 0 0
255 255 255
0 0 0
255 255 255
0 0 0
255 255 255
0 0 0
0 0 0
255 255 255
255 255 255
255 255 255
255 255 255
255 255 255
255 255 255
255 255 255
255 255 255
255 255 255
255 255 255
255 255 255
255 255 255
255 255 255
255 255 255
255 255 255
255 255 255
255 255 255
255 255 255
255 255 255
255 255 255
255 255 255
255 255 255
255 255 255
255 255 255
255 255 255
255 255 255
255 255 255
255 255 255
255 255 255
255 255 255
255 255 255
255 255 255
255 255 255
0 0 0
0 0 0
255 255 255
0 0 0
255 255 255
0 0 0
255 255 255
0 0 0
255 255 255
0 0 0
255 255 255
0 0 0
255 255 255
0 0 0
255 255 255
0 0 0
255 255 255
0 0 0
255 255 255
0 0 0
255 255 255
0 0 0
255 255 255
0 0 0
255 255 255
0 0 0
255 255 255
0 0 0
255 255 255
0 0 0
255 255 255
0 0 0
255 255 255
0 0 0
255 255 255
0 0 0
0 0 0
255 255 255
255 255 255
255 255 255
255 255 255
255 255 255
255 255 255
255 255 255
255 255 255
255 255 255
255 255 255
255 255 255
255 255 255
255 255 255
255 255 255
255 255 255
255 255 255
255 255 255
255 255 255
255 255 255
255 255 255
255 255 255
255 255 255
255 255 255
255 255 255
255 255 255
255 255 255
255 255 255
255 255 255
255 255 255
255 255 255
255 255 255
255 255 255
255 255 255
0 0 0
0 0 0
255 255 255
0 0 0
255 255 255
0 0 0
255 255 255
0 0 0
255 255 255
0 0 0
255 255 255
0 0 0
255 255 255
0 0 0
255 255 255
0 0 0
255 255 255
0 0 0
255 255 255
0 0 0
255 255 255
0 0 0
255 255 255
0 0 0
255 255 255
0 0 0
255 255 255
0 0 0
255 255 255
0 0 0
255 255 255
0 0 0
255 255 255
0 0 0
255 255 255
0 0 0
0 0 0
255 255 255
255 255 255
255 255 255
255 255 255
255 255 255
255 255 255
255 255 255
255 255 255
255 255 255
255 255 255
255 255 255
255 255 255
255 255 255
255 255 255
255 255 255
255 255 255
255 255 255
255 255 255
255 255 255
255 255 255
255 255 255
255 255 255
255 255 255
255 255 255
255 255 255
255 255 255
255 255 255
255 255 255
255 255 255
255 255 255
255 255 255
255 255 255
255 255 255
0 0 0
0 0 0
255 255 255
0 0 0
255 255 255
0 0 0
255 255 255
0 0 0
255 255 255
0 0 0
255 255 255
0 0 0
255 255 255
0 0 0
255 255 255
0 0 0
255 255 255
0 0 0
255 255 255
0 0 0
255 255 255
0 0 0
255 255 255
0 0 0
255 255 255
0 0 0
255 255 255
0 0 0
255 255 255
0 0 0
255 255 255
0 0 0
255 255 255
0 0 0
255 255 255
0 0 0
0 0 0
255 255 255
255 255 255
255 255 255
255 255 255
255 255 255
255 255 255
255 255 255
255 255 255
255 255 255
255 255 255
255 255 255
255 255 255
255 255 255
255 255 255
255 255 255
255 255 255
255 255 255
255 255 255
255 255 255
255 255 255
255 255 255
255 255 255
255 255 255
255 255 255
255 255 255
255 255 255
255 255 255
255 255 255
255 255 255
255 255 255
255 255 255
255 255 255
255 255 255
0 0 0
0 0 0
255 255 255
0 0 0
255 255 255
0 0 0
255 255 255
0 0 0
255 255 255
0 0 0
255 255 255
0 0 0
255 255 255
0 0 0
255 255 255
0 0 0
255 255 255
0 0 0
255 255 255
0 0 0
255 255 255
0 0 0
255 255 255
0 0 0
255 255 255
0 0 0
255 255 255
0 0 0
255 255 255
0 0 0
255 255 255
0 0 0
255 255 255
0 0 0
255 255 255
0 0 0
0 0 0
255 255 255
255 255 255
255 255 255
255 255 255
255 255 255
255 255 255
255 255 255
255 255 255
255 255 255
255 255 255
255 255 255
255 255 255
255 255 255
255 255 255
255 255 255
255 255 255
255 255 255
255 255 255
255 255 255
255 255 255
255 255 255
255 255 255
255 255 255
255 255 255
255 255 255
255 255 255
255 255 255
255 255 255
255 255 255
255 255 255
255 255 255
255 255 255
255 255 255
0 0 0
0 0 0
255 255 255
0 0 0
255 255 255
0 0 0
255 255 255
0 0 0
255 255 255
0 0 0
255 255 255
0 0 0
255 255 255
0 0 0
255 255 255
0 0 0
255 255 255
0 0 0
255 255 255
0 0 0
255 255 255
0 0 0
255 255 255
0 0 0
255 255 255
0 0 0
255 255 255
0 0 0
255 255 255
0 0 0
255 255 255
0 0 0
255 255 255
0 0 0
255 255 255
0 0 0
0 0 0
255 255 255
255 255 255
255 255 255
255 255 255
255 255 255
255 255 255
255 255 255
255 255 255
255 255 255
255 255 255
255 255 255
255 255 255
255 255 255
255 255 255
255 255 255
255 255 255
255 255 255
255 255 255
255 255 255
255 255 255
255 255 255
255 255 255
255 255 255
255 255 255
255 255 255
255 255 255
255 255 255
255 255 255
255 255 255
255 255 255
255 255 255
255 255 255
255 255 255
0 0 0
0 0 0
255 255 255
0 0 0
255 255 255
0 0 0
255 255 255
0 0 0
255 255 255
0 0 0
255 255 255
0 0 0
255 255 255
0 0 0
255 255 255
0 0 0
255 255 255
0 0 0
255 255 255
0 0 0
255 255 255
0 0 0
255 255 255
0 0 0
255 255 255
0 0 0
255 255 255
0 0 0
255 255 255
0 0 0
255 255 255
0 0 0
255 255 255
0 0 0
255 255 255
0 0 0
0 0 0
255 255 255
255 255 255
255 255 255
255 255 255
255 255 255
255 255 255
255 255 255
255 255 255
255 255 255
255 255 255
255 255 255
255 255 255
255 255 255
255 255 255
255 255 255
255 255 255
255 255 255
255 255 255
255 255 255
255 255 255
255 255 255
255 255 255
255 255 255
255 255 255
255 255 255
255 255 255
255 255 255
255 255 255
255 255 255
255 255 255
255 255 255
255 255 255
255 255 255
0 0 0
0 0 0
255 255 255
0 0 0
255 255 255
0 0 0
255 255 255
0 0 0
255 255 255
0 0 0
255 255 255
0 0 0
255 255 255
0 0 0
255 255 255
0 0 0
255 255 255
0 0 0
255 255 255
0 0 0
255 255 255
0 0 0
255 255 255
0 0 0
255 255 255
0 0 0
255 255 255
0 0 0
255 255 255
0 0 0
255 255 255
0 0 0
255 255 255
0 0 0
255 255 255
0 0 0
0 0 0
255 255 255
255 255 255
255 255 255
255 255 255
255 255 255
255 255 255
255 255 255
255 255 255
255 255 255
255 255 255
255 255 255
255 255 255
255 255 255
255 255 255
255 255 255
255 255 255
255 255 255
255 255 255
255 255 255
255 255 255
255 255 255
255 255 255
255 255 255
255 255 255
255 255 255
255 255 255
255 255 255
255 255 255
255 255 255
255 255 255
255 255 255
255 255 255
255 255 255
0 0 0
0 0 0
255 255 255
0 0 0
255 255 255
0 0 0
255 255 255
0 0 0
255 255 255
0 0 0
255 255 255
0 0 0
255 255 255
0 0 0
255 255 255
0 0 0
255 255 255
0 0 0
255 255 255
0 0 0
255 255 255
0 0 0
255 255 255
0 0 0
255 255 255
0 0 0
255 255 255
0 0 0
255 255 255
0 0 0
255 255 255
0 0 0
255 255 255
0 0 0
255 255 255
0 0 0
0 0 0
255 255 255
255 255 255
255 255 255
255 255 255
255 255 255
255 255 255
255 255 255
255 255 255
255 255 255
255 255 255
255 255 255
255 255 255
255 255 255
255 255 255
255 255 255
255 255 255
255 255 255
255 255 255
255 255 255
255 255 255
255 255 255
255 255 255
255 255 255
255 255 255
255 255 255
255 255 255
255 255 255
255 255 255
255 255 255
255 255 255
255 255 255
255 255 255
255 255 255
0 0 0
0 0 0
255 255 255
0 0 0
255 255 255
0 0 0
255 255 255
0 0 0
255 255 255
0 0 0
255 255 255
0 0 0
255 255 255
0 0 0
255 255 255
0 0 0
255 255 255
0 0 0
255 255 255
0 0 0
255 255 255
0 0 0
255 255 255
0 0 0
255 255 255
0 0 0
255 255 255
0 0 0
255 255 255
0 0 0
255 255 255
0 0 0
255 255 255
0 0 0
255 255 255
0 0 0
0 0 0
255 255 255
255 255 255
255 255 255
255 255 255
255 255 255
255 255 255
255 255 255
255 255 255
255 255 255
255 255 255
255 255 255
255 255 255
255 255 255
255 255 255
255 255 255
255 255 255
255 255 255
255 255 255
255 255 255
255 255 255
255 255 255
255 255 255
255 255 255
255 255 255
255 255 255
255 255 255
255 255 255
255 255 255
255 255 255
255 255 255
255 255 255
255 255 255
255 255 255
0 0 0
0 0 0
255 255 255
0 0 0
255 255 255
0 0 0
255 255 255
0 0 0
255 255 255
0 0 0
255 255 255
0 0 0
255 255 255
0 0 0
255 255 255
0 0 0
255 255 255
0 0 0
255 255 255
0 0 0
255 255 255
0 0 0
255 255 255
0 0 0
255 255 255
0 0 0
255 255 255
0 0 0
255 255 255
0 0 0
255 255 255
0 0 0
255 255 255
0 0 0
255 255 255
0 0 0
0 0 0
255 255 255
255 255 255
255 255 255
255 255 255
255 255 255
255 255 255
255 255 255
255 255 255
255 255 255
255 255 255
255 255 255
255 255 255
255 255 255
255 255 255
255 255 255
255 255 255
255 255 255
255 255 255
255 255 255
255 255 255
255 255 255
255 255 255
255 255 255
255 255 255
255 255 255
255 255 255
255 255 255
255 255 255
255 255 255
255 255 255
255 255 255
255 255 255
255 255 255
0 0 0
0 0 0
255 255 255
0 0 0
255 255 255
0 0 0
255 255 255
0 0 0
255 255 255
0 0 0
255 255 255
0 0 0
255 255 255
0 0 0
255 255 255
0 0 0
255 255 255
0 0 0
255 255 255
0 0 0
255 255 255
0 0 0
255 255 255
0 0 0
255 255 255
0 0 0
255 255 255
0 0 0
255 255 255
0 0 0
255 255 255
0 0 0
255 255 255
0 0 0
255 255 255
0 0 0
0 0 0
255 255 255
255 255 255
255 255 255
255 255 255
255 255 255
255 255 255
255 255 255
255 255 255
255 255 255
255 255 255
255 255 255
255 255 255
255 255 255
255 255 255
255 255 255
255 255 255
255 255 255
255 255 255
255 255 255
255 255 255
255 255 255
255 255 255
255 255 255
255 255 255
255 255 255
255 255 255
255 255 255
255 255 255
255 255 255
255 255 255
255 255 255
255 255 255
255 255 255
0 0 0
0 0 0
0 0 0
0 0 0
0 0 0
0 0 0
0 0 0
0 0 0
0 0 0
0 0 0
0 0 0
0 0 0
0 0 0
0 0 0
0 0 0
0 0 0
0 0 0
0 0 0
0 0 0
0 0 0
0 0 0
0 0 0
0 0 0
0 0 0
0 0 0
0 0 0
0 0 0
0 0 0
0 0 0
0 0 0
0 0 0
0 0 0
0 0 0
0 0 0
0 0 0
0 0 0
